<svg width="50" height="50" viewBox="0 0 50 50" fill="none" xmlns="http://www.w3.org/2000/svg">
<rect width="50" height="50" rx="25" fill="#EBEEFA"/>
<path d="M33.4375 25.75C33.8517 25.75 34.1875 25.4142 34.1875 25C34.1875 24.5858 33.8517 24.25 33.4375 24.25V25.75ZM33.25 25C33.25 29.5563 29.5563 33.25 25 33.25V34.75C30.3848 34.75 34.75 30.3848 34.75 25H33.25ZM25 33.25C20.4437 33.25 16.75 29.5563 16.75 25H15.25C15.25 30.3848 19.6152 34.75 25 34.75V33.25ZM16.75 25C16.75 20.4437 20.4437 16.75 25 16.75V15.25C19.6152 15.25 15.25 19.6152 15.25 25H16.75ZM25 16.75C29.5563 16.75 33.25 20.4437 33.25 25H34.75C34.75 19.6152 30.3848 15.25 25 15.25V16.75ZM25 33.25C24.7045 33.25 24.3639 33.1163 23.9886 32.7535C23.6098 32.3873 23.2344 31.8211 22.9029 31.0633C22.2408 29.55 21.8125 27.4069 21.8125 25H20.3125C20.3125 27.5637 20.7656 29.9206 21.5286 31.6646C21.9097 32.5355 22.3827 33.2873 22.9461 33.8319C23.513 34.3801 24.2082 34.75 25 34.75V33.25ZM21.8125 25C21.8125 22.5931 22.2408 20.45 22.9029 18.9367C23.2344 18.1789 23.6098 17.6127 23.9886 17.2465C24.3639 16.8837 24.7045 16.75 25 16.75V15.25C24.2082 15.25 23.513 15.6199 22.9461 16.1681C22.3827 16.7127 21.9097 17.4645 21.5286 18.3354C20.7656 20.0794 20.3125 22.4363 20.3125 25H21.8125ZM25 34.75C25.7918 34.75 26.487 34.3801 27.054 33.8319C27.6173 33.2873 28.0903 32.5355 28.4714 31.6646C29.2344 29.9206 29.6875 27.5637 29.6875 25H28.1875C28.1875 27.4069 27.7592 29.55 27.0971 31.0633C26.7656 31.8211 26.3902 32.3873 26.0114 32.7535C25.6361 33.1163 25.2955 33.25 25 33.25V34.75ZM29.6875 25C29.6875 22.4363 29.2344 20.0794 28.4714 18.3354C28.0903 17.4645 27.6173 16.7127 27.054 16.1681C26.487 15.6199 25.7918 15.25 25 15.25V16.75C25.2955 16.75 25.6361 16.8837 26.0114 17.2465C26.3902 17.6127 26.7656 18.1789 27.0971 18.9367C27.7592 20.45 28.1875 22.5931 28.1875 25H29.6875ZM16 25.75L33.4375 25.75V24.25L16 24.25L16 25.75Z" fill="#233981"/>
</svg>
